<svg width="137" height="95" viewBox="0 0 137 95" fill="none" xmlns="http://www.w3.org/2000/svg">
<path d="M46.497 4.90768C50.5311 2.58341 54.723 2.83531 58.8828 3.33835C63.1689 3.85667 67.7911 4.70326 73.8994 4.50925L73.9248 4.50827L73.9492 4.50729C84.5352 4.34428 102.773 4.10469 112.737 4.51022C117.672 4.71104 121.518 5.01925 124.43 5.67526C127.355 6.33433 129.821 7.44666 131.439 9.63425C132.786 11.4542 133.506 13.6748 133.686 15.6049C134.326 22.4673 133.675 42.9649 131.507 65.7358C131.073 70.2954 131.556 74.3636 131.557 78.6577C131.557 80.6453 131.439 82.7137 130.892 84.5542C130.321 86.4733 129.229 88.3093 127.22 89.5063C125.732 90.3923 124.147 90.8174 121.283 91.019C118.493 91.2155 114.154 91.2181 106.957 91.0561C93.7521 90.759 69.2416 90.1019 55.1767 89.311C41.3364 88.5327 37.0647 87.6597 33.6523 85.519C32.0006 84.4828 30.7207 83.2204 29.7207 82.1274C28.7106 81.0234 28.2202 80.3878 27.6669 79.8149L27.1269 79.2749C25.6564 77.7504 24.3822 75.6482 23.206 73.4663C21.939 71.1159 20.5731 68.2525 19.1425 65.4155C16.2067 59.5934 12.7237 53.3234 7.8105 48.2524C7.47894 47.9103 7.0867 47.6907 6.623 47.5102C6.37011 47.4118 6.15339 47.3449 5.83784 47.2417C5.67701 47.189 5.05259 47.0012 4.52534 46.6596C4.22818 46.4671 3.65518 46.0377 3.29487 45.2573C2.87919 44.3567 2.95378 43.4536 3.20796 42.7729C3.4253 42.191 3.76231 41.784 3.96089 41.5669C4.18139 41.3258 4.41755 41.121 4.62104 40.9565C5.36395 40.3562 6.63813 39.5458 8.373 38.4594C19.3308 31.598 24.0815 26.8265 26.2646 23.893C27.3334 22.4568 27.8178 21.4195 28.125 20.6987C28.2421 20.4238 28.4712 19.846 28.6669 19.4643C28.8674 19.0735 29.3511 18.204 30.3759 17.6772C33.3802 16.0154 36.4251 13.4738 39.2343 10.9702C40.583 9.76829 41.9732 8.48846 43.1191 7.48776C44.2517 6.49872 45.4358 5.51915 46.497 4.90768Z" stroke="black" stroke-width="6" stroke-linecap="square"/>
</svg>
